<svg width="24" height="24" viewBox="0 0 24 24" fill="none" xmlns="http://www.w3.org/2000/svg">
<path d="M0 4.88889C0 4.39797 0.397969 4 0.888889 4H23.1111C23.602 4 24 4.39797 24 4.88889C24 5.37981 23.602 5.77778 23.1111 5.77778H0.88889C0.39797 5.77778 0 5.37981 0 4.88889Z" fill="white"/>
<path d="M0 12C0 11.5091 0.397969 11.1111 0.888889 11.1111H16.6496C17.1405 11.1111 17.5385 11.5091 17.5385 12C17.5385 12.4909 17.1405 12.8889 16.6496 12.8889H0.88889C0.39797 12.8889 0 12.4909 0 12Z" fill="white"/>
<path d="M0 19.1111C0 18.6202 0.397969 18.2222 0.888889 18.2222H23.1111C23.602 18.2222 24 18.6202 24 19.1111C24 19.602 23.602 20 23.1111 20H0.88889C0.39797 20 0 19.602 0 19.1111Z" fill="white"/>
</svg>
