<svg width="24" height="24" viewBox="0 0 24 24" fill="none" xmlns="http://www.w3.org/2000/svg">
<path d="M4.55708 20.4C4.31209 20.4 4.0671 20.3062 3.87953 20.1206C3.5063 19.7474 3.5063 19.1407 3.87953 18.7675L18.7665 3.88182C19.1397 3.50862 19.7465 3.50862 20.1197 3.88182C20.4929 4.25501 20.4929 4.86169 20.1197 5.23489L5.23272 20.1206C5.04706 20.3062 4.80207 20.4 4.55708 20.4Z" fill="black"/>
<path d="M19.4441 20.4C19.1991 20.4 18.9541 20.3062 18.7665 20.1206L3.87953 5.23297C3.5063 4.85978 3.5063 4.2531 3.87953 3.8799C4.25276 3.50671 4.85949 3.50671 5.23272 3.8799L20.1197 18.7656C20.4929 19.1388 20.4929 19.7455 20.1197 20.1187C19.934 20.3062 19.689 20.4 19.4441 20.4Z" fill="black"/>
</svg>
